<?xml version="1.0" standalone="no"?>
<!DOCTYPE svg PUBLIC "-//W3C//DTD SVG 20010904//EN"
 "http://www.w3.org/TR/2001/REC-SVG-20010904/DTD/svg10.dtd">
<svg version="1.0" xmlns="http://www.w3.org/2000/svg"
 width="600.000000pt" height="600.000000pt" viewBox="0 0 600.000000 600.000000"
 preserveAspectRatio="xMidYMid meet">
<rect width="100%" height="100%" fill="white"/>
<g transform="translate(0.000000,600.000000) scale(0.100000,-0.100000)"
fill="#000000" stroke="none">
<path d="M3855 4681 c-3 -5 -2 -12 3 -15 5 -3 9 1 9 9 0 17 -3 19 -12 6z"/>
<path d="M2013 4660 c-65 -13 -81 -26 -100 -81 l-18 -51 -5 47 -5 47 -78 -52
c-291 -195 -405 -649 -241 -960 38 -73 98 -144 117 -137 16 5 13 34 -12 132
-38 147 -25 303 36 433 52 112 201 230 312 248 22 4 39 10 36 14 -2 4 -32 13
-65 20 -111 24 -203 -5 -291 -89 -29 -28 -54 -49 -56 -48 -1 2 13 26 32 54 96
143 263 185 418 106 82 -40 193 -161 249 -268 51 -99 99 -229 117 -316 l12
-55 44 43 c24 23 82 60 127 82 81 38 222 76 241 64 12 -7 3 33 -20 96 l-17 43
-55 -6 c-33 -3 -83 -19 -122 -39 -72 -36 -89 -37 -89 -3 0 18 13 30 58 54 62
32 151 55 177 45 12 -4 5 18 -24 76 -30 59 -46 81 -61 81 -51 0 -125 -25 -166
-56 -49 -38 -71 -42 -81 -17 -15 38 122 123 199 123 15 0 28 3 28 6 0 3 -23
35 -50 69 -49 62 -52 63 -88 58 -52 -8 -119 -41 -142 -70 -22 -29 -54 -27 -58
2 -5 36 102 115 155 115 13 0 23 4 23 9 0 15 -108 91 -130 91 -37 0 -84 -26
-123 -68 -23 -26 -43 -39 -52 -36 -44 17 23 115 97 143 20 7 15 11 -46 30 -37
11 -76 21 -86 21 -28 0 -70 -39 -93 -89 -23 -48 -43 -58 -60 -29 -13 20 17 92
47 114 19 13 19 14 -14 13 -19 -1 -54 -5 -77 -9z m20 -47 c-8 -52 -9 -122 -1
-117 5 3 5 11 1 17 -4 7 0 6 10 -2 9 -7 17 -10 17 -5 0 4 5 3 11 -3 9 -9 18
-8 35 4 13 8 24 20 24 26 0 6 8 19 18 30 12 15 13 19 2 13 -9 -5 -8 -2 2 7 10
8 16 16 13 18 -2 3 5 11 17 18 16 10 19 10 12 -1 -6 -10 -4 -11 7 -3 13 9 32
11 52 5 4 -1 12 -4 17 -5 6 -1 12 -3 15 -4 3 0 -3 -9 -12 -19 -10 -11 -21 -17
-25 -15 -5 2 -8 -3 -8 -11 0 -8 -6 -19 -14 -23 -28 -16 -29 -57 -2 -86 26 -28
42 -34 48 -17 2 6 13 12 25 12 11 1 19 7 16 14 -6 16 58 73 69 63 3 -2 11 1
19 7 18 15 64 -1 53 -18 -5 -7 -2 -9 8 -5 11 4 15 1 13 -11 -2 -9 -4 -21 -4
-25 -1 -5 -6 -5 -13 -1 -6 4 -17 -1 -25 -11 -7 -11 -13 -16 -13 -12 0 13 -52
-38 -65 -63 -22 -45 -2 -90 42 -90 14 0 38 13 56 32 18 18 35 31 40 30 4 -1 7
3 7 9 0 5 4 8 9 4 5 -3 12 -1 16 4 3 6 12 8 20 4 9 -3 21 0 28 6 11 8 21 4 43
-17 31 -29 44 -65 22 -61 -20 3 -68 -12 -68 -22 0 -5 -9 -9 -21 -9 -11 0 -17
-4 -14 -10 3 -5 -1 -10 -10 -10 -8 0 -18 -7 -21 -15 -4 -8 -10 -12 -15 -9 -5
3 -9 -2 -9 -10 0 -9 -4 -16 -9 -16 -20 0 -22 -40 -3 -65 11 -13 22 -21 26 -18
3 3 6 0 6 -7 0 -10 4 -9 18 3 9 8 20 15 24 14 4 -1 16 5 26 14 28 24 157 72
140 52 -12 -15 -11 -15 11 -4 15 8 21 9 17 2 -4 -6 -3 -11 2 -11 10 0 21 -22
28 -55 3 -18 -4 -23 -56 -34 -33 -7 -64 -19 -70 -26 -6 -7 -22 -16 -35 -19
-14 -4 -25 -13 -25 -22 0 -8 -7 -17 -15 -20 -22 -9 -18 -51 5 -64 11 -6 18
-15 15 -21 -4 -5 1 -9 9 -9 8 0 18 5 21 10 4 6 10 8 15 5 4 -3 13 2 20 10 7 8
16 12 21 9 5 -3 9 -1 9 5 0 6 6 8 14 5 8 -3 17 0 22 7 5 8 3 10 -7 4 -8 -5
-11 -5 -7 0 4 4 22 9 40 11 18 2 43 5 55 8 26 5 45 -15 49 -51 2 -14 0 -23 -3
-19 -3 3 -14 1 -24 -4 -9 -6 -34 -12 -55 -15 -21 -2 -42 -9 -48 -15 -5 -5 -19
-10 -29 -10 -36 0 -173 -81 -159 -94 3 -4 -2 -4 -12 0 -14 6 -17 4 -11 -6 5
-8 3 -11 -6 -8 -7 2 -18 22 -23 44 -5 21 -12 41 -15 44 -3 3 -7 15 -8 27 -1
12 -16 51 -33 87 -16 37 -30 70 -30 75 0 5 -16 32 -35 61 -19 29 -35 55 -35
59 0 4 -23 31 -51 61 -28 30 -52 61 -53 69 -2 8 -11 15 -20 17 -10 1 -26 10
-35 18 -10 9 -21 13 -24 9 -4 -3 -7 -1 -7 5 0 7 -7 12 -16 12 -8 0 -13 4 -10
9 9 13 -104 41 -165 41 -78 -1 -125 -14 -178 -51 -25 -18 -47 -37 -49 -41 -2
-4 -10 -8 -18 -8 -9 0 -13 -4 -10 -9 3 -5 -1 -14 -10 -21 -8 -7 -23 -31 -33
-53 -16 -35 -17 -43 -5 -55 9 -8 21 -11 32 -6 9 4 21 6 25 5 5 -1 6 3 3 8 -7
10 42 61 58 61 6 0 1 -7 -10 -16 -18 -14 -18 -15 4 -4 12 6 20 15 17 20 -6 9
12 23 34 27 8 1 17 5 20 10 3 4 13 9 21 9 8 1 20 3 25 4 6 1 18 2 29 1 15 -1
16 -4 6 -16 -7 -8 -19 -15 -26 -15 -8 0 -14 -4 -14 -8 0 -4 -20 -21 -45 -36
-25 -16 -45 -33 -45 -38 0 -5 -3 -7 -7 -5 -5 3 -17 -7 -27 -22 l-20 -26 24 20
c17 14 15 8 -7 -18 -37 -43 -96 -155 -88 -168 3 -4 0 -23 -8 -41 -17 -43 -21
-186 -6 -263 6 -33 11 -68 11 -78 -1 -11 4 -15 11 -11 9 5 9 4 0 -6 -10 -11
-16 -9 -32 11 -12 13 -26 39 -33 57 -7 17 -15 32 -18 32 -4 0 -7 6 -8 13 0 6
-10 46 -22 87 -19 65 -21 91 -16 195 8 154 5 139 51 285 5 16 43 89 60 115 32
51 127 156 149 166 12 6 32 16 45 24 23 13 26 12 36 -8 20 -40 43 -33 68 22
18 43 29 53 62 65 22 8 41 15 42 15 1 1 -1 -11 -4 -26z"/>
<path d="M2525 4120 c-3 -5 -1 -10 4 -10 6 0 11 5 11 10 0 6 -2 10 -4 10 -3 0
-8 -4 -11 -10z"/>
<path d="M3890 4663 c0 -6 9 -18 20 -28 10 -9 24 -33 31 -52 9 -29 9 -38 -4
-50 -20 -20 -31 -12 -56 40 -12 24 -35 53 -51 66 -34 24 -51 24 -144 -6 l-50
-16 36 -18 c39 -20 98 -82 98 -103 0 -8 -7 -20 -16 -27 -14 -11 -21 -7 -51 29
-37 45 -78 71 -115 74 -26 2 -144 -81 -131 -92 4 -4 26 -12 48 -18 55 -16 127
-78 123 -106 -4 -30 -35 -32 -62 -3 -34 37 -99 67 -144 67 -36 0 -43 -5 -85
-60 -26 -33 -47 -62 -47 -65 0 -3 13 -5 28 -5 47 0 117 -29 161 -66 44 -38 50
-54 26 -74 -12 -10 -21 -7 -52 20 -45 40 -84 57 -151 66 l-51 6 -41 -82 c-29
-58 -37 -81 -25 -77 22 9 111 -11 160 -35 52 -26 75 -47 75 -68 0 -31 -29 -30
-76 0 -47 30 -136 54 -176 48 -16 -2 -26 -16 -39 -53 -26 -75 -25 -85 14 -85
91 0 259 -69 339 -140 l46 -40 12 53 c7 28 26 90 42 137 103 295 272 469 464
478 82 5 130 -8 191 -50 37 -25 129 -136 120 -145 -2 -1 -27 20 -56 48 -88 84
-180 113 -291 89 -73 -16 -82 -25 -31 -34 21 -3 70 -22 109 -41 121 -61 210
-177 248 -327 22 -86 14 -255 -17 -356 -19 -61 -20 -75 -9 -82 22 -13 45 5 88
70 218 326 101 840 -237 1039 l-51 30 0 -46 c0 -54 -8 -51 -29 15 -14 40 -21
49 -53 59 -54 18 -138 27 -138 16z m-84 -54 c6 -5 14 -6 17 -2 7 6 10 -11 5
-22 -2 -2 7 -12 20 -20 12 -9 20 -20 17 -24 -2 -5 7 -19 22 -32 14 -13 23 -18
18 -10 -6 10 -4 12 6 5 20 -12 40 -14 33 -3 -4 8 7 12 26 11 8 -1 5 66 -3 74
-4 4 -7 16 -7 26 0 14 6 17 23 14 26 -5 75 -24 64 -25 -12 -1 31 -78 47 -84
18 -7 51 28 41 43 -6 10 14 1 79 -37 11 -7 20 -17 18 -23 -1 -5 2 -9 6 -8 4 2
20 -9 34 -24 14 -15 28 -25 32 -21 4 4 4 0 1 -9 -4 -9 1 -21 12 -29 41 -31
122 -195 142 -289 16 -75 15 -328 -2 -380 -24 -73 -63 -153 -92 -185 -20 -23
-24 -25 -15 -7 6 12 8 28 4 34 -4 6 -3 8 3 5 13 -8 17 38 17 188 0 152 -30
262 -93 334 -11 13 -18 27 -16 32 3 4 0 11 -6 15 -8 5 -10 2 -5 -7 4 -8 0 -5
-8 5 -9 11 -16 22 -16 26 0 3 -14 14 -30 24 -17 9 -28 22 -24 27 3 5 2 8 -3 7
-9 -3 -101 40 -107 50 -6 10 66 8 82 -1 6 -5 16 -6 21 -3 5 4 11 1 13 -4 2 -6
11 -12 21 -14 10 -1 28 -14 40 -27 12 -14 18 -18 13 -9 -5 8 4 2 21 -15 17
-16 29 -33 27 -36 -2 -3 2 -6 9 -6 7 0 17 -2 22 -3 38 -9 43 35 10 87 -21 33
-84 93 -97 93 -5 0 -7 4 -3 9 3 5 -12 15 -32 22 -21 7 -45 15 -53 18 -8 3 -56
5 -106 5 -71 0 -97 -4 -119 -18 -18 -12 -25 -13 -20 -5 3 8 0 6 -8 -3 -8 -10
-20 -18 -27 -18 -14 0 -68 -41 -125 -97 -40 -38 -115 -151 -115 -172 0 -6 -4
-11 -9 -11 -8 0 -18 -19 -26 -50 -1 -3 -12 -27 -24 -54 -13 -27 -24 -54 -25
-60 -1 -6 -8 -21 -14 -34 -7 -12 -10 -27 -7 -32 4 -6 0 -13 -9 -16 -8 -3 -12
-12 -9 -20 3 -8 2 -21 -1 -30 -5 -13 -11 -11 -39 10 -19 14 -39 26 -45 26 -7
0 -12 4 -12 8 0 11 -86 52 -108 52 -10 0 -23 5 -28 10 -6 6 -24 13 -40 15 -16
2 -38 6 -49 9 -11 2 -26 5 -34 5 -9 1 -11 9 -7 29 4 15 7 32 8 38 2 20 116 -4
179 -38 47 -26 61 -30 68 -20 4 8 12 14 17 15 5 1 8 5 6 10 -1 4 2 7 8 7 30 0
-17 89 -48 91 -12 0 -13 2 -3 6 7 3 -17 16 -54 29 -37 13 -71 21 -76 18 -5 -3
-9 0 -9 6 0 6 -4 8 -10 5 -20 -12 -10 32 15 65 14 19 25 27 25 19 0 -9 3 -10
8 -3 8 12 53 14 46 2 -3 -4 6 -8 19 -8 14 0 30 -7 37 -15 7 -9 19 -14 26 -11
13 5 29 -21 25 -39 -2 -5 0 -7 4 -3 4 4 17 3 30 -2 19 -7 29 -4 49 17 14 14
26 32 26 39 0 19 -59 84 -77 84 -8 0 -11 5 -8 10 3 6 -3 10 -14 10 -10 0 -21
5 -23 10 -2 6 -13 12 -26 13 -12 0 -22 5 -22 10 0 4 -4 6 -9 2 -19 -11 -24 18
-5 32 10 8 19 17 18 21 -1 12 20 27 38 28 10 1 15 -3 11 -9 -4 -6 2 -8 15 -5
12 4 25 2 28 -3 3 -5 12 -9 20 -9 9 0 31 -16 50 -35 36 -38 58 -43 89 -19 30
22 26 63 -8 101 -17 18 -34 33 -39 33 -5 0 -16 7 -25 15 -8 8 -19 13 -24 10
-5 -4 -9 -3 -10 2 0 4 -2 16 -4 25 -2 12 2 15 13 11 11 -5 13 -3 7 7 -5 8 -4
11 3 6 6 -3 18 1 26 10 10 9 16 11 16 4 0 -7 7 -9 16 -6 8 3 13 2 9 -3 -3 -5
9 -12 26 -16 18 -4 35 -16 41 -31 6 -13 22 -31 35 -39 21 -14 25 -14 47 0 42
28 42 52 1 110 -29 40 -37 63 -22 68 15 5 48 -3 63 -14z"/>
<path d="M1790 4630 c-9 -6 -10 -10 -3 -10 6 0 15 5 18 10 8 12 4 12 -15 0z"/>
<path d="M4360 4476 c0 -2 8 -10 18 -17 15 -13 16 -12 3 4 -13 16 -21 21 -21
13z"/>
<path d="M1606 4458 c3 -5 10 -6 15 -3 13 9 11 12 -6 12 -8 0 -12 -4 -9 -9z"/>
<path d="M1880 4176 c7 -7 13 -7 20 0 6 6 3 10 -10 10 -13 0 -16 -4 -10 -10z"/>
<path d="M3734 4118 c0 -10 1 -18 3 -18 1 0 7 8 12 18 7 13 6 19 -2 19 -7 0
-13 -9 -13 -19z"/>
<path d="M2801 3824 c-82 -17 -194 -71 -249 -119 -25 -22 -57 -65 -77 -106
l-35 -68 -82 56 c-149 101 -305 163 -491 194 -114 19 -133 0 -103 -104 23 -79
83 -173 159 -249 80 -80 201 -144 339 -179 l86 -21 11 -61 c6 -35 30 -101 56
-152 43 -85 46 -97 55 -210 17 -203 29 -237 138 -404 l56 -86 9 50 c13 77 22
72 22 -13 1 -88 16 -124 72 -162 45 -31 128 -59 176 -60 l37 0 0 69 c0 69 0
70 -42 106 -24 20 -60 46 -81 56 -44 23 -63 62 -48 96 11 24 43 32 40 11 -3
-29 4 -38 61 -77 82 -54 89 -56 141 -23 24 16 56 36 72 45 20 13 27 26 27 48
0 26 2 29 19 19 48 -25 32 -85 -32 -120 -22 -13 -58 -39 -79 -58 -37 -34 -38
-36 -38 -105 l0 -70 53 6 c65 7 133 36 180 76 41 37 60 101 51 178 -4 38 -3
44 6 30 6 -9 14 -36 18 -59 l7 -42 63 97 c101 156 114 193 132 397 9 107 13
121 55 205 25 51 50 117 56 151 l11 60 96 28 c53 14 124 39 157 55 168 79 300
235 336 398 20 89 -12 101 -171 63 -183 -44 -296 -92 -431 -185 l-76 -52 -19
31 c-10 17 -27 48 -38 69 -40 81 -175 161 -323 193 -72 15 -90 16 -137 4 -41
-10 -62 -10 -86 -1 -42 14 -78 13 -159 -5z m199 -27 c14 0 55 3 93 6 41 4 65
2 62 -4 -4 -5 9 -9 28 -9 19 0 51 -7 71 -15 20 -8 36 -12 36 -8 0 5 4 4 8 -2
4 -5 24 -19 44 -29 21 -10 35 -22 32 -27 -2 -4 5 -6 16 -4 11 2 18 0 15 -6 -4
-5 -1 -9 5 -9 13 0 40 -25 40 -36 0 -5 12 -19 28 -32 15 -13 21 -20 13 -16
-15 8 11 -38 43 -73 26 -31 47 -29 87 7 19 16 38 30 43 30 4 0 27 15 50 32 23
19 35 24 26 13 -12 -16 -10 -16 11 3 14 12 29 22 32 22 4 0 19 8 34 17 14 9
33 18 42 19 9 1 41 11 71 23 49 19 90 28 79 17 -2 -2 -6 -4 -9 -4 -11 0 -110
-53 -115 -62 -4 -6 -11 -8 -16 -5 -5 4 -9 2 -9 -4 0 -5 -8 -12 -17 -15 -21 -7
-104 -86 -148 -141 -16 -20 -41 -49 -55 -63 -14 -14 -18 -22 -10 -17 11 6 10
3 -2 -12 -49 -55 24 -123 75 -71 9 9 13 18 10 22 -4 3 -2 6 4 6 5 0 32 28 59
62 27 33 66 73 86 88 21 15 35 30 32 33 -3 2 8 11 25 18 16 7 27 17 25 21 -3
4 4 8 15 8 12 0 21 5 21 10 0 6 9 10 21 10 11 0 17 4 14 10 -3 6 1 7 9 4 9 -4
18 1 22 10 3 9 10 13 15 10 5 -3 18 4 30 15 12 11 25 18 29 16 3 -2 19 6 34
19 25 19 27 25 17 44 -8 14 -17 19 -29 15 -9 -3 -14 -3 -10 1 3 4 12 8 20 10
7 1 19 6 27 10 10 7 12 5 6 -4 -5 -9 -2 -10 12 -6 18 6 19 2 17 -41 -2 -25 -7
-49 -11 -52 -4 -3 -9 -13 -11 -21 -3 -13 -20 -43 -65 -115 -15 -25 -107 -121
-107 -112 0 3 -12 -5 -27 -19 -44 -41 -209 -111 -302 -129 -12 -2 -35 -11 -52
-19 -16 -8 -27 -11 -24 -6 5 7 -33 22 -65 24 -27 2 -108 -43 -127 -71 -32 -46
-60 -106 -67 -144 -5 -28 -2 -39 13 -53 16 -15 19 -15 24 -2 4 10 13 13 23 9
11 -4 15 -3 10 5 -6 11 50 32 87 32 9 0 17 4 17 8 0 5 11 14 25 20 14 6 25 20
25 29 0 15 2 16 10 3 6 -9 5 -17 -1 -21 -6 -3 -11 -10 -11 -15 0 -5 -4 -8 -10
-6 -5 1 -6 -2 -3 -8 4 -6 1 -19 -7 -28 -35 -43 -44 -79 -63 -255 -17 -150 -38
-219 -88 -281 -17 -22 -25 -36 -19 -32 20 12 14 1 -18 -35 -21 -24 -30 -29
-30 -17 0 9 -7 24 -16 33 -27 27 -41 1 -49 -88 -7 -73 -11 -84 -37 -109 -17
-16 -41 -31 -54 -34 -13 -3 -22 -10 -19 -14 3 -5 -14 -11 -37 -15 -24 -4 -50
-11 -59 -16 -14 -7 -16 0 -17 51 0 33 5 63 11 67 6 4 7 1 2 -8 -8 -12 -6 -12
8 0 9 7 17 20 17 29 0 8 3 13 6 9 3 -3 15 3 27 13 11 11 23 17 27 15 4 -3 22
9 39 27 23 24 31 41 31 67 -1 65 -54 102 -84 59 -8 -12 -13 -25 -10 -29 2 -4
-5 -10 -16 -14 -11 -4 -18 -10 -16 -14 3 -4 -10 -14 -29 -21 -19 -8 -35 -18
-35 -22 0 -5 -4 -6 -10 -3 -5 3 -10 1 -10 -4 0 -18 -19 -13 -54 14 -18 14 -36
25 -40 25 -9 0 -41 31 -41 39 -1 16 -27 51 -38 51 -28 0 -57 -40 -57 -79 0
-46 23 -78 76 -106 66 -35 88 -64 88 -117 1 -52 0 -52 -59 -37 -22 6 -46 11
-52 11 -7 1 -13 5 -13 9 0 4 -10 10 -22 13 -46 13 -71 61 -76 147 -5 84 -19
112 -47 89 -8 -6 -17 -21 -21 -32 -5 -17 -14 -7 -53 54 -69 107 -89 172 -100
323 -11 131 -26 191 -66 249 -11 16 -21 41 -22 55 -2 20 0 22 5 8 10 -25 88
-67 123 -67 16 0 32 -7 38 -17 6 -10 11 -13 11 -8 1 6 5 2 8 -8 7 -16 9 -16
30 -2 23 17 30 49 12 60 -5 3 -10 16 -10 28 0 34 -66 133 -105 157 -19 12 -47
22 -62 24 -39 3 -85 -13 -76 -27 5 -9 3 -9 -8 -1 -13 11 -111 43 -154 51 -11
2 -24 8 -29 13 -6 6 -16 10 -23 10 -24 0 -127 53 -178 90 -53 41 -125 112
-125 125 0 5 -11 23 -26 42 -14 18 -21 33 -17 33 4 0 2 4 -5 9 -7 4 -15 14
-16 22 -1 8 -8 33 -16 56 -17 56 -9 72 34 70 19 -1 32 -6 29 -11 -3 -4 5 -5
18 -1 13 4 20 4 16 -1 -4 -4 -20 -8 -35 -9 -42 0 -40 -35 4 -62 19 -13 32 -17
28 -10 -8 13 36 -21 48 -38 5 -6 8 -4 8 4 0 11 6 9 23 -7 12 -11 34 -24 49
-27 16 -4 25 -12 21 -18 -3 -5 -2 -7 4 -4 5 3 17 -3 26 -14 10 -11 23 -17 29
-13 7 4 8 3 4 -4 -3 -6 3 -16 15 -22 22 -12 130 -123 177 -183 15 -18 33 -32
41 -29 8 3 11 0 7 -7 -11 -18 2 -13 29 11 34 29 32 45 -16 114 -74 105 -155
189 -201 208 -20 9 -40 20 -43 26 -4 6 -11 7 -17 4 -7 -5 -8 -2 -4 5 5 8 3 12
-5 10 -25 -3 -40 1 -35 9 3 5 -17 14 -44 21 -28 7 -53 18 -57 24 -4 6 0 8 9 5
38 -15 164 -51 171 -50 4 1 7 -2 7 -8 0 -5 9 -10 19 -10 11 0 23 -5 26 -11 4
-6 14 -8 22 -5 9 4 11 2 7 -6 -5 -8 -2 -9 10 -5 9 4 15 3 13 -1 -3 -4 7 -16
22 -27 26 -19 26 -19 11 0 -14 19 34 -16 71 -50 9 -8 20 -15 25 -15 6 0 25
-11 43 -24 30 -22 36 -23 55 -11 11 8 32 39 45 70 13 30 28 55 33 55 5 0 6 5
3 10 -3 6 -1 10 5 10 5 0 24 15 41 33 17 17 28 27 25 21 -3 -6 1 -11 8 -11 8
0 12 6 9 13 -2 6 1 15 8 20 8 5 10 3 4 -5 -4 -8 3 -6 18 3 38 26 127 57 177
63 25 2 47 7 49 9 3 3 25 1 50 -3 26 -4 57 -7 71 -6z m1120 -51 c0 -7 -40 -14
-44 -7 -3 4 6 8 20 9 13 1 24 0 24 -2z m-2190 -12 c0 -8 -19 -13 -24 -6 -3 5
1 9 9 9 8 0 15 -2 15 -3z m2125 -4 c-3 -5 -14 -10 -23 -10 -15 0 -15 2 -2 10
20 13 33 13 25 0z m-2071 -50 c28 0 163 -77 212 -122 78 -71 175 -194 168
-213 -12 -30 -40 -12 -99 61 -99 123 -221 215 -369 278 -36 16 -66 32 -66 36
0 4 32 -3 72 -16 40 -13 76 -24 82 -24z m2176 36 c0 -2 -51 -29 -112 -59 -135
-66 -226 -139 -311 -248 -60 -76 -89 -95 -100 -65 -7 18 79 133 150 202 63 61
140 104 259 143 85 29 114 35 114 27z m-1623 -517 c22 -19 52 -74 73 -133 20
-59 14 -73 -14 -31 -12 18 -25 25 -47 25 -67 0 -129 54 -129 113 0 14 -7 28
-17 31 -21 8 -7 23 27 28 26 4 83 -14 107 -33z m1063 24 c13 -4 13 -6 -1 -16
-9 -7 -19 -28 -23 -48 -10 -53 -48 -87 -107 -95 -36 -5 -55 -14 -69 -32 -32
-40 -33 -20 -4 54 30 73 87 140 126 146 23 4 49 1 78 -9z"/>
<path d="M2536 3430 c-18 -19 -17 -20 29 -64 25 -25 44 -49 41 -54 -3 -6 2
-16 12 -23 16 -13 16 -13 2 5 -9 12 -10 17 -3 12 13 -7 77 -133 78 -151 0 -5
5 -19 11 -30 6 -11 14 -36 18 -56 8 -47 30 -67 52 -48 12 10 14 24 10 63 -11
94 -51 225 -72 233 -8 3 -12 8 -9 12 8 14 -70 89 -109 105 -21 9 -39 16 -40
15 0 0 -9 -9 -20 -19z m69 -34 c72 -42 122 -134 150 -273 21 -106 14 -131 -10
-34 -32 132 -109 262 -185 313 -39 27 -2 21 45 -6z"/>
<path d="M3408 3438 c-16 -5 -28 -14 -28 -19 0 -6 -4 -8 -8 -5 -5 3 -21 -9
-35 -27 -14 -18 -35 -43 -46 -56 -12 -13 -22 -28 -22 -33 -3 -18 -5 -24 -22
-55 -10 -18 -15 -33 -13 -33 3 0 0 -15 -5 -32 -15 -55 -20 -140 -8 -155 15
-18 29 -17 29 3 0 9 5 12 13 8 6 -4 9 -4 5 0 -6 7 9 61 31 111 5 11 17 40 27
65 10 25 26 54 36 66 10 11 15 24 11 27 -3 4 0 7 7 7 7 0 10 3 7 6 -9 9 63 65
74 58 5 -3 9 4 9 16 0 12 5 18 10 15 15 -9 12 0 -9 23 -20 24 -24 25 -63 10z
m38 -31 c-46 -30 -66 -50 -99 -99 -40 -61 -82 -163 -98 -238 -16 -74 -23 -54
-10 29 22 138 81 252 154 296 43 25 91 36 53 12z"/>
<path d="M2743 2838 c-5 -7 -10 -40 -12 -73 -1 -33 -4 -77 -6 -98 -5 -49 2
-67 27 -67 20 0 40 36 53 98 18 83 -28 185 -62 140z m34 -118 c-5 -53 -23
-117 -31 -109 -3 2 0 24 4 49 5 25 10 77 10 115 2 65 3 67 12 35 6 -19 8 -60
5 -90z"/>
<path d="M3205 2813 c-14 -28 -16 -50 -11 -97 4 -34 7 -66 8 -73 1 -7 5 -10
10 -7 4 3 8 2 8 -3 0 -4 7 -17 15 -27 15 -20 15 -20 29 -1 9 12 13 35 10 60
-2 22 -4 60 -5 85 0 53 -16 100 -34 100 -7 0 -21 -16 -30 -37z m49 -181 c4
-12 3 -22 -2 -22 -24 0 -41 152 -24 210 4 17 9 -6 13 -71 4 -52 10 -105 13
-117z"/>
<path d="M4216 3528 c3 -5 10 -6 15 -3 13 9 11 12 -6 12 -8 0 -12 -4 -9 -9z"/>
<path d="M2003 3295 c0 -8 4 -12 9 -9 5 3 6 10 3 15 -9 13 -12 11 -12 -6z"/>
<path d="M2461 2423 c-29 -242 -75 -448 -141 -635 l-39 -112 62 -59 c34 -32
93 -81 132 -108 l70 -50 6 25 c4 13 10 52 14 85 9 75 25 80 26 9 0 -29 6 -75
12 -103 11 -45 16 -52 57 -72 120 -58 319 -86 459 -64 78 12 210 53 247 76 23
15 44 96 44 172 0 24 5 43 10 43 6 0 10 -12 10 -27 1 -16 6 -54 13 -86 l12
-58 72 51 c102 72 197 167 187 188 -74 171 -142 449 -175 725 l-12 99 -31 -59
c-18 -32 -66 -108 -107 -169 -41 -60 -80 -129 -87 -151 -7 -23 -27 -63 -46
-90 -32 -47 -33 -52 -25 -104 16 -100 -23 -220 -93 -286 l-30 -28 20 40 c34
68 52 145 52 223 0 40 -3 72 -7 70 -61 -31 -99 -42 -159 -46 -59 -3 -82 0
-132 21 l-62 25 0 -77 c0 -71 10 -111 55 -226 19 -48 -47 32 -78 94 -28 58
-31 73 -32 160 0 86 -3 101 -27 141 -15 25 -34 65 -43 89 -8 24 -53 100 -99
170 -46 69 -93 143 -104 164 l-20 37 -11 -97z m64 -35 c5 4 5 2 2 -5 -4 -6 -1
-17 6 -25 27 -27 110 -161 130 -211 12 -29 24 -54 27 -57 3 -3 12 -20 19 -37
8 -18 17 -33 21 -33 5 0 8 -33 8 -72 -1 -86 9 -153 28 -190 8 -15 13 -30 12
-32 -2 -2 8 -16 21 -29 12 -14 20 -30 17 -36 -4 -7 -1 -8 8 -5 9 4 18 0 22 -9
3 -8 13 -14 22 -13 17 3 62 -52 62 -74 0 -13 22 -53 35 -62 6 -4 7 -8 3 -8 -4
0 0 -9 9 -20 17 -20 17 -20 39 0 11 12 36 51 55 89 28 56 40 71 69 82 19 7 39
12 43 11 5 -1 6 2 2 7 -3 6 4 20 15 31 12 12 19 24 16 28 -3 3 0 12 8 21 25
30 36 84 36 182 0 58 4 100 11 104 12 8 62 114 62 133 0 6 4 12 9 12 4 0 8 6
8 13 0 7 8 22 18 33 19 23 34 46 58 89 9 17 25 38 35 48 11 10 16 23 13 29 -4
7 -2 8 4 4 7 -4 12 -1 12 9 0 32 24 8 25 -26 1 -19 5 -47 8 -64 14 -65 20
-101 19 -120 -1 -10 4 -25 9 -32 6 -6 8 -16 5 -22 -3 -5 -2 -21 4 -35 5 -15
12 -37 14 -49 2 -12 9 -42 16 -67 7 -25 12 -46 11 -47 0 -2 7 -22 15 -45 9
-24 17 -47 18 -53 2 -5 8 -23 15 -40 7 -16 17 -48 23 -71 l11 -41 -58 -54
c-32 -30 -66 -62 -76 -71 -11 -10 -22 -18 -26 -18 -3 0 -15 -7 -24 -16 -17
-16 -19 -15 -28 8 -5 14 -12 40 -15 58 -2 18 -12 40 -20 49 -14 14 -17 14 -32
0 -8 -9 -17 -33 -19 -55 -2 -21 -7 -52 -11 -69 -3 -16 -7 -36 -7 -43 0 -8 -10
-20 -22 -28 -35 -23 -146 -64 -138 -51 5 8 2 8 -9 -1 -53 -42 -352 -33 -468
15 -8 3 -17 7 -20 8 -30 10 -58 25 -67 36 -6 8 -16 51 -23 96 -21 139 -58 138
-87 -2 -2 -11 -7 -23 -12 -28 -10 -10 -73 48 -63 58 4 5 1 5 -5 1 -12 -6 -42
17 -124 96 -16 15 -15 22 22 125 22 59 41 117 44 128 2 11 10 41 18 68 8 26
13 47 11 47 -2 0 1 12 7 28 6 15 11 39 11 54 0 15 4 30 9 33 5 4 9 20 9 37 0
18 4 57 10 87 5 31 13 74 16 96 5 35 7 38 18 23 7 -10 17 -14 21 -10z m465
-492 c52 -1 110 4 128 11 l32 12 0 -57 0 -57 -19 24 c-10 13 -23 21 -30 17
-13 -8 -51 -84 -51 -101 0 -7 -11 -28 -24 -48 -13 -19 -21 -39 -18 -43 4 -4 2
-4 -4 -1 -12 7 -84 149 -84 165 0 5 -7 16 -16 23 -13 11 -17 10 -26 -4 -15
-28 -28 -10 -28 39 0 43 1 44 23 32 13 -7 61 -12 117 -12z m-90 -90 c0 -13 22
-67 49 -119 l49 -97 37 66 c20 37 44 91 53 120 9 30 21 54 26 54 5 0 6 -29 3
-66 -4 -53 -14 -83 -55 -162 -28 -53 -56 -98 -64 -99 -23 -5 -111 199 -116
268 -3 39 -1 59 7 59 6 0 11 -11 11 -24z"/>
<path d="M2813 1625 c0 -8 4 -12 9 -9 5 3 6 10 3 15 -9 13 -12 11 -12 -6z"/>
<path d="M2760 2123 c0 -3 16 -26 36 -50 103 -126 305 -126 407 -1 20 25 37
47 37 50 0 3 -28 -6 -62 -21 -56 -23 -76 -26 -183 -26 -109 0 -125 2 -177 27
-32 15 -58 24 -58 21z m358 -75 c-4 -19 -30 -37 -45 -31 -7 3 -13 1 -13 -4 0
-12 -107 -8 -142 6 -34 13 -38 36 -5 28 73 -19 127 -15 205 12 1 1 1 -5 0 -11z"/>
<path d="M2350 1556 c0 -2 7 -7 16 -10 8 -3 12 -2 9 4 -6 10 -25 14 -25 6z"/>
<path d="M3410 1406 c0 -2 8 -10 18 -17 15 -13 16 -12 3 4 -13 16 -21 21 -21
13z"/>
</g>
</svg>
